<svg width="112" height="93" viewBox="0 0 112 93" fill="none" xmlns="http://www.w3.org/2000/svg">
<rect width="112" height="93" rx="26" fill="#766E70" fill-opacity="0.65"/>
<path d="M34 76V16H54.2698C58.9564 16 62.8034 16.8008 65.8106 18.4023C68.8179 19.9844 71.0441 22.1621 72.4891 24.9355C73.9342 27.709 74.6567 30.8633 74.6567 34.3984C74.6567 37.9336 73.9342 41.0684 72.4891 43.8027C71.0441 46.5371 68.8277 48.6855 65.8399 50.248C62.8522 51.791 59.0345 52.5625 54.3869 52.5625H37.9837V46H54.1526C57.3551 46 59.9328 45.5312 61.8856 44.5937C63.8579 43.6562 65.2834 42.3281 66.1621 40.6094C67.0604 38.8711 67.5095 36.8008 67.5095 34.3984C67.5095 31.9961 67.0604 29.8965 66.1621 28.0996C65.2638 26.3027 63.8286 24.916 61.8563 23.9395C59.884 22.9434 57.277 22.4453 54.0354 22.4453H41.2643V76H34ZM62.2371 49.0469L77 76H68.564L54.0354 49.0469H62.2371Z" fill="white"/>
</svg>
